<?xml version="1.0" standalone="no"?>
<!DOCTYPE svg PUBLIC "-//W3C//DTD SVG 20010904//EN"
 "http://www.w3.org/TR/2001/REC-SVG-20010904/DTD/svg10.dtd">
<svg version="1.0" xmlns="http://www.w3.org/2000/svg"
 width="603.000000pt" height="495.000000pt" viewBox="0 0 603.000000 495.000000"
 preserveAspectRatio="xMidYMid meet">

<g transform="translate(0.000000,495.000000) scale(0.100000,-0.100000)"
fill="#000000" stroke="none">
<path d="M418 4894 c-80 -43 -138 -241 -117 -404 25 -206 91 -298 410 -576 75
-66 283 -249 464 -408 l328 -289 -80 -23 c-163 -47 -383 -155 -468 -229 l-30
-26 36 5 c19 4 111 17 205 31 93 14 185 27 204 30 29 5 21 -2 -49 -42 -99 -56
-175 -121 -201 -172 -33 -65 -98 -123 -154 -137 -26 -6 -27 -8 -10 -17 11 -6
48 -11 84 -11 80 0 114 17 195 94 98 93 344 250 356 227 4 -7 15 -43 23 -81
58 -248 183 -472 368 -660 26 -26 48 -50 48 -52 0 -2 -34 -4 -75 -4 l-75 0 0
73 c0 104 -11 117 -104 117 -99 0 -108 -8 -110 -98 -1 -40 -7 -77 -12 -82 -6
-6 -203 -11 -509 -12 l-500 -3 -3 -302 -2 -301 27 -6 c16 -3 223 -5 460 -4
238 1 434 -1 435 -4 2 -4 -49 -52 -112 -107 l-115 -101 -60 65 c-33 36 -66 65
-72 65 -16 0 -125 -97 -137 -121 -7 -14 3 -31 43 -77 28 -33 51 -66 51 -74 0
-8 -24 -34 -54 -59 -29 -24 -170 -146 -312 -270 -143 -125 -285 -248 -316
-275 -61 -53 -72 -69 -61 -89 15 -26 376 -435 384 -435 11 0 99 73 374 315
352 308 395 345 403 345 4 0 29 -27 56 -60 27 -32 55 -61 63 -64 15 -6 153
108 153 127 0 7 -22 38 -50 69 -27 31 -50 63 -50 71 0 8 46 55 102 103 57 49
147 128 201 176 54 49 102 88 106 88 5 0 30 -37 56 -82 102 -175 249 -284 465
-344 100 -28 404 -26 520 3 108 27 167 53 251 108 103 69 193 191 248 338 l11
28 229 -201 c127 -110 232 -204 235 -208 3 -5 -20 -36 -50 -71 -29 -34 -54
-68 -54 -76 0 -17 123 -125 143 -125 8 0 40 28 70 62 66 73 47 80 223 -78 331
-299 592 -524 605 -524 12 0 28 16 198 210 219 250 204 229 189 251 -11 15
-271 247 -655 582 -45 40 -82 78 -83 85 0 8 23 39 50 70 28 31 50 63 50 71 0
18 -125 131 -144 131 -7 0 -36 -27 -65 -60 -29 -33 -58 -60 -64 -60 -14 0
-242 199 -230 201 4 1 247 2 538 3 l530 1 88 31 c117 42 187 86 260 164 71 75
120 160 142 248 14 54 14 64 0 99 -29 72 18 67 -770 73 l-710 5 -73 136 c-72
137 -73 137 -61 181 22 80 -4 139 -81 189 -24 16 -24 18 -13 60 42 150 72 270
79 312 4 29 15 57 28 69 22 21 311 273 467 408 47 41 120 105 160 141 41 36
177 155 302 264 126 109 246 221 267 249 47 62 94 161 115 241 41 160 -5 383
-95 459 -36 29 -56 32 -103 12 -38 -16 -33 -11 -478 -401 -658 -577 -783 -685
-789 -685 -3 0 -22 29 -43 64 -83 144 -230 311 -369 416 -431 327 -985 375
-1443 125 -201 -109 -407 -301 -530 -493 -22 -34 -43 -61 -47 -59 -9 2 -105
87 -467 407 -647 572 -723 637 -755 650 -36 13 -55 12 -88 -6z m94 -71 c26
-23 23 -32 -17 -49 -75 -31 -111 -6 -65 44 25 26 57 28 82 5z m129 -116 c3 -5
-9 -35 -29 -67 l-34 -59 -45 60 c-24 34 -43 62 -41 63 2 2 17 8 35 15 18 7 38
20 44 27 10 13 16 11 38 -8 14 -13 29 -27 32 -31z m4863 3 l41 -1 -30 -21
c-89 -64 -145 -156 -145 -235 0 -52 32 -130 75 -187 42 -55 38 -59 -79 -71
-55 -6 -137 -25 -181 -41 -11 -4 7 21 41 57 85 90 109 144 109 244 0 72 -3 86
-35 144 l-34 64 53 47 54 48 45 -24 c26 -14 63 -24 86 -24z m-5054 -70 c28
-27 57 -65 65 -84 21 -50 19 -128 -5 -179 -19 -38 -63 -97 -73 -97 -8 0 -57
124 -67 170 -19 88 -9 240 16 240 7 0 36 -22 64 -50z m393 -107 c414 -363 857
-755 857 -759 0 -3 -10 -24 -22 -47 -12 -23 -36 -86 -53 -139 l-32 -97 -229
202 c-481 422 -620 546 -651 578 -91 97 -109 240 -43 347 11 17 24 32 29 32 6
0 71 -53 144 -117z m-253 -184 c0 -7 14 -34 30 -61 31 -49 36 -63 22 -54 -4 2
-35 8 -67 11 -33 4 -61 9 -63 10 -5 5 62 105 71 105 4 0 7 -5 7 -11z m72 -185
c133 -31 191 -93 229 -245 12 -44 19 -83 16 -85 -5 -5 -390 334 -396 348 -4
12 51 5 151 -18z m4375 -170 c-13 -33 -30 -88 -36 -124 -15 -84 -29 -118 -50
-125 -9 -3 -58 -7 -108 -10 -50 -2 -112 -12 -138 -20 -26 -9 -49 -15 -51 -12
-2 2 87 83 198 180 111 97 204 175 206 173 2 -2 -8 -30 -21 -62z m-3922 -169
l50 -45 -90 3 -89 2 -17 85 c-10 47 -18 89 -18 93 -1 8 47 -32 164 -138z m130
-135 c54 -26 130 -107 157 -166 11 -25 22 -71 25 -102 l6 -57 -46 40 c-185
158 -346 301 -346 307 -3 24 141 8 204 -22z m3274 -132 c-26 -51 -45 -117 -54
-185 -10 -79 -21 -88 -102 -88 l-68 0 -3 56 c-3 53 -1 57 30 81 18 14 71 60
118 102 47 41 88 76 93 76 4 0 -2 -19 -14 -42z m-2961 -121 c19 -20 22 -31 16
-66 -6 -40 -8 -42 -38 -39 -30 3 -31 5 -43 73 -17 100 -17 99 15 77 15 -11 37
-31 50 -45z m350 -534 c5 -10 9 -32 10 -49 7 -118 124 -275 244 -328 280 -124
570 21 638 319 l16 70 334 0 335 0 3 -74 c2 -41 -1 -78 -5 -82 -10 -10 -118 5
-250 34 -57 13 -103 20 -103 16 0 -12 122 -101 167 -121 23 -10 76 -27 119
-38 42 -10 80 -24 84 -30 4 -7 10 -57 14 -113 9 -141 17 -198 27 -192 14 9 38
107 49 205 7 52 17 100 23 106 7 6 43 16 80 23 38 6 98 25 133 42 65 31 164
102 164 118 0 5 -44 -2 -97 -14 -124 -29 -263 -49 -273 -38 -4 4 -5 42 -1 83
l6 75 278 3 c246 2 278 1 284 -14 3 -8 -9 -61 -28 -117 -33 -97 -36 -102 -79
-127 -62 -35 -93 -96 -85 -165 l5 -50 -73 -90 c-83 -101 -196 -203 -305 -275
-258 -169 -629 -238 -939 -174 -406 84 -738 341 -911 706 -39 82 -85 212 -97
276 l-7 32 116 0 c100 0 116 -2 124 -17z m2301 -310 c46 -38 42 -126 -8 -152
-36 -20 -90 -13 -118 15 -22 22 -25 32 -20 72 3 31 12 52 27 64 29 23 91 23
119 1z m98 -338 c88 -164 88 -166 22 -204 -65 -37 -87 -39 -93 -8 -21 96 -56
284 -56 299 0 17 34 39 54 34 5 -1 37 -56 73 -121z m-166 -71 c20 -98 34 -182
32 -186 -2 -5 -17 -8 -33 -8 -33 0 -31 -7 -50 233 -12 158 -12 149 2 145 8 -3
28 -79 49 -184z m-113 -1 c17 -219 19 -203 -27 -203 -22 0 -42 4 -45 9 -4 5
-1 76 4 158 10 139 24 193 48 193 4 0 13 -71 20 -157z m-2240 91 l22 -6 0
-430 0 -429 -37 3 -38 3 -3 420 c-1 231 0 426 3 432 5 14 18 16 53 7z m2110
-91 c-3 -24 -8 -28 -38 -31 l-35 -4 29 31 c37 38 48 39 44 4z m-3048 -137 c0
-26 -7 -34 -37 -51 -58 -31 -83 -76 -83 -149 0 -80 22 -124 78 -155 38 -20 43
-27 40 -55 l-3 -31 -70 0 -70 0 -3 237 -2 237 57 3 c84 4 93 1 93 -36z m807
32 c8 -15 12 -118 4 -118 -3 0 -31 26 -63 57 l-58 57 -93 -92 c-51 -50 -97
-92 -102 -92 -5 0 -51 42 -102 92 l-93 93 -110 -110 c-61 -60 -110 -114 -110
-120 0 -6 49 -60 110 -120 l110 -110 93 93 c51 50 97 92 102 92 5 0 51 -42
102 -92 l93 -92 58 57 c32 31 60 57 63 57 5 0 5 -52 0 -113 -1 -16 -24 -17
-373 -15 l-373 3 -5 55 c-5 54 -6 56 -51 79 -52 26 -69 53 -69 110 0 49 26 82
76 96 l39 11 3 59 c2 33 9 63 15 67 7 4 173 8 369 8 274 0 359 -3 365 -12z
m471 -15 c5 -37 -18 -66 -133 -166 l-110 -96 -3 131 c-1 73 0 138 3 145 3 11
31 13 122 11 113 -3 118 -4 121 -25z m1754 -42 c-1 -40 3 -70 10 -80 17 -21
-22 10 -99 78 -34 30 -60 58 -57 63 3 5 38 8 77 6 l72 -3 -3 -64z m1682 28
c-2 -80 -75 -177 -169 -227 l-50 -27 -646 -3 -646 -3 -69 62 c-38 35 -70 66
-72 70 -2 3 19 3 45 -2 30 -6 92 -5 168 2 113 10 125 14 200 54 44 24 94 60
112 79 l31 36 549 -2 548 -3 -1 -36z m266 28 c32 -16 36 -44 15 -110 -55 -169
-206 -305 -390 -352 -49 -13 -152 -15 -623 -15 l-563 0 -65 57 c-35 31 -64 60
-64 64 0 5 268 9 596 9 558 0 599 1 649 19 118 42 211 144 236 259 7 31 17 63
22 70 13 16 154 16 187 -1z m-3554 -89 c43 -24 108 -55 144 -69 l65 -27 3
-121 c1 -66 -1 -121 -6 -121 -18 0 -188 61 -253 91 -64 30 -69 34 -69 63 1 53
27 226 35 226 2 0 39 -19 81 -42z m1386 -80 l16 -103 -29 -26 c-34 -30 -112
-70 -205 -105 l-64 -24 -5 23 c-3 12 -5 65 -3 117 l3 95 45 20 c25 11 81 39
125 62 44 23 85 42 90 42 6 1 18 -45 27 -101z m178 -14 c47 -42 223 -198 393
-346 169 -149 307 -274 307 -279 0 -5 -25 -37 -57 -72 -31 -34 -71 -79 -90
-100 -22 -24 -39 -35 -47 -30 -7 5 -47 38 -87 74 -41 37 -172 153 -291 259
l-218 192 0 62 c0 55 -4 98 -26 280 -7 55 -6 58 12 48 10 -6 57 -46 104 -88z
m-2620 -119 l-70 -70 -65 65 c-36 35 -65 69 -65 75 0 6 30 40 66 74 l66 64 69
-69 69 -69 -70 -70z m382 148 c33 -33 58 -66 58 -78 0 -12 -25 -46 -60 -80
l-60 -59 -65 64 c-36 35 -65 69 -65 74 0 10 120 136 129 136 3 0 31 -26 63
-57z m1708 -172 c0 -99 -3 -120 -16 -125 -28 -11 -254 -37 -292 -34 l-37 3 0
110 0 110 91 8 c50 4 124 16 165 26 41 11 77 19 82 20 4 1 7 -53 7 -118z
m-655 94 c33 -8 102 -18 153 -21 l92 -7 0 -115 0 -115 -87 7 c-114 9 -223 26
-245 37 -16 8 -18 25 -18 119 0 126 -6 121 105 95z m1026 -197 c0 -35 2 -76 4
-92 3 -20 -3 -34 -20 -50 -42 -39 -270 -144 -283 -131 -9 9 -10 179 -1 196 4
9 48 30 96 48 48 17 111 45 138 61 28 16 53 30 58 30 4 0 7 -28 8 -62z m-1417
7 c32 -14 95 -36 140 -49 l81 -24 3 -102 3 -102 -24 6 c-45 11 -194 77 -248
109 l-54 32 -8 75 c-4 41 -5 81 -2 87 5 14 11 12 109 -32z m476 -115 c179 -18
160 -3 160 -125 l0 -105 -44 0 c-61 0 -276 38 -293 51 -9 8 -13 39 -13 106 l0
95 38 -5 c20 -3 89 -11 152 -17z m570 -84 l0 -104 -47 -11 c-73 -17 -182 -31
-245 -31 l-58 0 0 105 c0 122 -13 110 140 119 52 4 109 10 125 15 17 5 42 10
58 10 l27 1 0 -104z m477 18 c43 -33 42 -46 -4 -42 -35 3 -38 6 -41 36 -4 39
1 39 45 6z m-1677 -38 c0 -32 -2 -34 -60 -48 -33 -8 -60 -12 -60 -9 -1 11 105
99 112 94 5 -2 8 -19 8 -37z m109 -17 c95 -58 312 -129 471 -155 127 -21 395
-20 526 1 120 19 281 72 382 125 l74 38 -7 -46 c-13 -84 -60 -208 -109 -280
-79 -120 -207 -203 -374 -244 -70 -18 -117 -22 -247 -22 -188 0 -252 13 -390
79 -184 89 -291 227 -354 454 -11 39 -17 71 -13 71 4 0 22 -9 41 -21z m1686
-68 c85 -39 134 -115 143 -220 3 -43 2 -62 -6 -60 -24 9 -312 271 -312 284 0
23 124 20 175 -4z m-2603 -98 c51 -59 131 -151 178 -204 47 -52 96 -109 110
-125 14 -16 58 -66 98 -112 39 -45 72 -88 72 -95 0 -6 -12 -21 -27 -31 l-26
-19 -36 39 c-104 114 -507 580 -515 596 -10 20 16 58 40 58 7 0 55 -48 106
-107z m3453 84 l26 -22 -162 -185 c-89 -102 -189 -216 -224 -255 -34 -38 -83
-95 -110 -125 -78 -90 -70 -85 -99 -64 -14 11 -26 25 -26 33 0 10 142 179 301
356 15 17 78 87 140 158 61 70 116 127 120 127 4 0 20 -10 34 -23z m-2880 -74
c-23 -57 -35 -114 -35 -175 0 -37 -2 -68 -5 -68 -2 0 -23 10 -46 22 -23 12
-64 27 -92 33 l-50 11 109 97 c109 97 132 112 119 80z m2294 -125 c22 -21 41
-40 41 -42 0 -2 -15 -6 -32 -9 -18 -3 -41 -8 -50 -12 -16 -6 -18 0 -18 50 0
31 4 55 9 53 5 -1 27 -20 50 -40z m664 -121 c42 -39 75 -72 73 -74 -7 -7 -198
-54 -202 -50 -4 4 15 173 22 195 5 18 15 11 107 -71z m-188 -48 c-7 -51 -17
-94 -24 -98 -17 -11 -163 -43 -168 -37 -5 4 189 226 198 226 3 0 0 -41 -6 -91z
m-382 50 c20 -5 37 -15 37 -22 -1 -17 -52 -74 -71 -79 -20 -4 -114 78 -99 87
38 23 83 28 133 14z m605 -176 c-11 -14 -177 -202 -196 -223 -4 -5 2 66 14
156 l6 42 91 24 c51 13 94 23 96 21 2 -2 -2 -11 -11 -20z m135 13 c-4 -8 -73
-88 -152 -178 -80 -89 -148 -167 -153 -172 -5 -6 -12 -6 -19 1 -15 15 289 363
319 363 8 0 10 -5 5 -14z m-394 -174 c-14 -117 -3 -116 -123 -6 l-78 71 98 25
c55 14 103 22 107 18 5 -4 3 -53 -4 -108z m551 47 c44 -38 80 -74 80 -78 0 -9
-188 -66 -196 -59 -2 3 0 36 6 74 16 112 21 134 25 134 3 0 41 -32 85 -71z
m-175 -73 c-4 -36 -12 -72 -19 -80 -11 -15 -156 -60 -156 -49 0 10 173 204
177 199 3 -2 2 -34 -2 -70z m380 -106 c65 -45 66 -63 8 -124 -27 -28 -98 -106
-157 -173 l-108 -123 -49 42 c-28 23 -48 47 -47 54 3 11 299 353 306 354 2 0
23 -14 47 -30z m-4757 -22 c15 -18 82 -95 149 -172 68 -78 123 -146 123 -153
0 -18 -59 -63 -75 -57 -8 3 -56 54 -107 112 -51 59 -111 126 -133 150 -22 24
-47 55 -55 68 -14 24 -13 27 18 55 18 16 37 29 43 29 6 0 22 -14 37 -32z
m4581 5 c-14 -16 -60 -67 -102 -115 -41 -47 -77 -84 -79 -82 -7 7 19 165 29
175 11 11 128 47 157 48 18 1 17 -1 -5 -26z m-229 -50 c0 -18 -29 -186 -33
-189 -5 -5 -151 123 -155 136 -2 5 16 14 40 20 24 6 61 17 83 25 47 16 65 18
65 8z"/>
<path d="M2860 2379 c-90 -37 -129 -153 -77 -229 37 -55 72 -75 132 -75 155 0
212 193 85 287 -31 22 -106 32 -140 17z"/>
</g>
</svg>
